# xmcd
#
# Track frame offsets:
#	150
#	19298
#	41475
#	62984
#	82580
#	107033
#	128626
#	149950
#	169493
#	182079
#	209706
#	238352
#	258883
#	275241
#	292800
#	308817
#
# Disc length: 4299 seconds
#
# Revision: 1
# Processed by: cddbd v1.5.2PL0 Copyright (c) Steve Scherf et al.
# Submitted via: audiograbber 1.83.01
#
DISCID=fa10c910
DTITLE=Lucinda Williams - This Sweet Old World
DYEAR=2017
DGENRE=Country
TTITLE0=Six Blocks Away
TTITLE1=Prove My Love
TTITLE2=Something About What Happens When We Talk
TTITLE3=Memphis Pearl
TTITLE4=Sidewalks Of The City
TTITLE5=Sweet Old World
TTITLE6=Little Angel, Little Brother
TTITLE7=Pineola
TTITLE8=Lines Around Your Eyes
TTITLE9=Drivin' Down A Dead End Street
TTITLE10=Hot Blood
TTITLE11=Which Will
TTITLE12=Factory Blues
TTITLE13=What You Don't Know
TTITLE14=Wild And Blue
TTITLE15=Dark Side Of Life
EXTD=
EXTT0=
EXTT1=
EXTT2=
EXTT3=
EXTT4=
EXTT5=
EXTT6=
EXTT7=
EXTT8=
EXTT9=
EXTT10=
EXTT11=
EXTT12=
EXTT13=
EXTT14=
EXTT15=
PLAYORDER=
